<svg width="32" height="32" viewBox="0 0 32 32" fill="none" xmlns="http://www.w3.org/2000/svg">
<path d="M21.4945 26.4532C20.7586 25.7173 19.6426 25.5586 18.6471 25.8621C17.644 26.168 16.5793 26.3325 15.4761 26.3325C9.48031 26.3325 4.61974 21.4719 4.61974 15.4761C4.61974 9.48031 9.48031 4.61974 15.4761 4.61974C21.4719 4.61974 26.3325 9.48031 26.3325 15.4761C26.3325 16.4849 26.1949 17.4615 25.9375 18.3883C25.6645 19.371 25.8352 20.4584 26.5564 21.1796C27.6819 22.3051 29.5752 22.0634 30.0979 20.5599C30.6514 18.9676 30.9522 17.257 30.9522 15.4761C30.9522 6.9289 24.0233 0 15.4761 0C6.9289 0 0 6.9289 0 15.4761C0 24.0233 6.9289 30.9522 15.4761 30.9522C17.3918 30.9522 19.2262 30.6042 20.9195 29.9678C22.3836 29.4176 22.6005 27.5592 21.4945 26.4532Z" fill="#755E6E"/>
<path d="M21.4945 26.4532C20.7586 25.7173 19.6426 25.5586 18.6471 25.8621C17.644 26.168 16.5793 26.3325 15.4761 26.3325C9.48031 26.3325 4.61974 21.4719 4.61974 15.4761C4.61974 9.48031 9.48031 4.61974 15.4761 4.61974C21.4719 4.61974 26.3325 9.48031 26.3325 15.4761C26.3325 16.4849 26.1949 17.4615 25.9375 18.3883C25.6645 19.371 25.8352 20.4584 26.5564 21.1796C27.6819 22.3051 29.5752 22.0634 30.0979 20.5599C30.6514 18.9676 30.9522 17.257 30.9522 15.4761C30.9522 6.9289 24.0233 0 15.4761 0C6.9289 0 0 6.9289 0 15.4761C0 24.0233 6.9289 30.9522 15.4761 30.9522C17.3918 30.9522 19.2262 30.6042 20.9195 29.9678C22.3836 29.4176 22.6005 27.5592 21.4945 26.4532Z" stroke="#2C3333"/>
<rect x="19.4933" y="15.4761" width="17.687" height="5.3061" rx="2" transform="rotate(45 19.4933 15.4761)" fill="#755E6E"/>
<rect x="19.4933" y="15.4761" width="17.687" height="5.3061" rx="2" transform="rotate(45 19.4933 15.4761)" stroke="#2C3333"/>
</svg>
