<svg width="16" height="12" viewBox="0 0 16 12" fill="none" xmlns="http://www.w3.org/2000/svg">
<path d="M6.27519 0.725074C6.47519 0.925074 6.57119 1.16674 6.56319 1.45007C6.55519 1.73341 6.45086 1.97507 6.25019 2.17507L3.42519 5.00007L14.5752 5.00007C14.8585 5.00007 15.0962 5.09607 15.2882 5.28807C15.4802 5.48007 15.5759 5.71741 15.5752 6.00007C15.5752 6.28341 15.4792 6.52107 15.2872 6.71307C15.0952 6.90507 14.8579 7.00074 14.5752 7.00007L3.42519 7.00007L6.27519 9.85007C6.47519 10.0501 6.57519 10.2877 6.57519 10.5631C6.57519 10.8384 6.47519 11.0757 6.27519 11.2751C6.07519 11.4751 5.83753 11.5751 5.56219 11.5751C5.28686 11.5751 5.04952 11.4751 4.85019 11.2751L0.275192 6.70007C0.175192 6.60007 0.104191 6.49174 0.062191 6.37507C0.020191 6.25841 -0.000475932 6.13341 0.000190735 6.00007C0.000190735 5.86674 0.0211924 5.74174 0.0631924 5.62507C0.105192 5.50841 0.175859 5.40007 0.275192 5.30007L4.87519 0.700074C5.05853 0.516741 5.28753 0.425073 5.56219 0.425073C5.83686 0.425073 6.07452 0.525074 6.27519 0.725074Z" fill="black"/>
</svg>
