<svg width="18" height="19" viewBox="0 0 18 19" fill="none" xmlns="http://www.w3.org/2000/svg">
<path d="M12 17C12.0001 17.5046 11.8096 17.9906 11.4665 18.3605C11.1234 18.7305 10.6531 18.9572 10.15 18.995L9.99997 19H7.99997C7.49539 19.0002 7.0094 18.8096 6.63942 18.4665C6.26944 18.1234 6.04281 17.6532 6.00497 17.15L5.99997 17H12ZM8.99997 9.54067e-10C10.815 -2.9945e-05 12.559 0.704894 13.8642 1.96607C15.1694 3.22726 15.9337 4.94609 15.996 6.76L16 7V10.764L17.822 14.408C17.9015 14.567 17.9413 14.7429 17.9379 14.9206C17.9346 15.0984 17.8882 15.2727 17.8028 15.4286C17.7174 15.5845 17.5955 15.7174 17.4475 15.8158C17.2994 15.9143 17.1298 15.9754 16.953 15.994L16.838 16H1.16197C0.984135 16.0001 0.808937 15.957 0.651392 15.8745C0.493846 15.792 0.358649 15.6725 0.257388 15.5264C0.156126 15.3802 0.091818 15.2116 0.0699749 15.0351C0.0481318 14.8586 0.0694047 14.6795 0.131971 14.513L0.177971 14.408L1.99997 10.764V7C1.99997 5.14348 2.73747 3.36301 4.05022 2.05025C5.36298 0.737498 7.14346 9.54069e-10 8.99997 9.54067e-10Z" fill="black"/>
</svg>
