<svg width="24" height="24" viewBox="0 0 24 24" fill="none" xmlns="http://www.w3.org/2000/svg">
<path d="M22.67 22.9228L22.6671 22.9199C21.2073 21.4601 19.3306 20.7902 17.4279 20.5195C15.5324 20.2498 13.5342 20.3655 11.749 20.5405C11.1683 20.5974 10.58 20.6027 9.99073 20.5542C7.49445 20.3489 5.17172 19.1949 3.50013 17.3296C1.82854 15.4643 0.935157 13.0295 1.00367 10.5257C1.07218 8.02193 2.09738 5.63957 3.86848 3.86848C5.63957 2.09738 8.02193 1.07218 10.5257 1.00367C13.0295 0.935157 15.4643 1.82854 17.3296 3.50013C19.1949 5.17172 20.3489 7.49445 20.5542 9.99073C20.602 10.5722 20.5975 11.1527 20.5427 11.7259C20.3714 13.5168 20.2599 15.5222 20.5351 17.423C20.8107 19.3263 21.4852 21.2024 22.948 22.6592C22.9814 22.6959 23 22.7438 23 22.7935C23 22.8431 22.9816 22.8907 22.9484 22.9273C22.9309 22.9439 22.9105 22.9572 22.8882 22.9665C22.8639 22.9766 22.8378 22.9818 22.8115 22.9818C22.7852 22.9818 22.7592 22.9766 22.7349 22.9665C22.7106 22.9563 22.6886 22.9415 22.67 22.9228ZM5.59906 18.6303C7.14406 19.6627 8.96049 20.2137 10.8186 20.2137C13.3104 20.2137 15.7 19.2238 17.4619 17.4619C19.2238 15.7 20.2137 13.3104 20.2137 10.8186C20.2137 8.96049 19.6627 7.14406 18.6303 5.59906C17.598 4.05406 16.1307 2.84988 14.414 2.13879C12.6973 1.42771 10.8082 1.24165 8.98577 1.60416C7.16332 1.96667 5.48929 2.86146 4.17537 4.17537C2.86146 5.48929 1.96667 7.16332 1.60416 8.98577C1.24165 10.8082 1.42771 12.6973 2.13879 14.414C2.84988 16.1307 4.05406 17.598 5.59906 18.6303Z" fill="#EDF2F4" stroke="#EDF2F4" stroke-width="2"/>
</svg>
