<svg width="715" height="176" viewBox="0 0 715 176" fill="none" xmlns="http://www.w3.org/2000/svg">
<path d="M38.6796 75.5186L48.6911 72.3532L64.347 92.6791L65.5676 67.0173L75.5792 63.8519L73.473 97.6597L91.4482 119.35L95.035 57.3858L106.763 53.6778L100.421 130.147L91.1719 133.072L68.9041 106.76L65.7141 141.121L56.37 144.075L7.3151 85.1207L18.9475 81.4428L57.5997 130.052L59.8383 101.971L38.6796 75.5186Z" fill="#FF6329"/>
<path d="M185.776 109.779L175.022 112.092L168.861 83.4471C167.866 78.8195 166.276 75.5474 164.09 73.6307C161.905 71.714 159.281 71.085 156.218 71.7438C154.328 72.1503 152.484 73.0922 150.688 74.5696C148.892 76.047 147.408 77.8663 146.236 80.0277C145.05 82.1239 144.351 84.4222 144.139 86.9227L150.678 117.328L139.924 119.64L124.575 48.2722L135.329 45.9594L141.889 76.4619C143.102 72.5871 145.192 69.3075 148.161 66.6234C151.116 63.874 154.548 62.0788 158.459 61.2378C161.652 60.5509 164.411 60.5372 166.735 61.1966C169.059 61.8561 171.018 63.0373 172.612 64.7403C174.256 66.3641 175.58 68.3978 176.583 70.8416C177.637 73.2062 178.466 75.7897 179.068 78.5923L185.776 109.779Z" fill="#FF6329"/>
<path d="M196.851 92.1771C196.373 88.8782 196.881 85.8744 198.376 83.1658C199.926 80.3817 202.255 78.0911 205.363 76.294C208.462 74.431 212.188 73.1844 216.543 72.5542C218.852 72.22 221.218 72.0459 223.641 72.032C226.13 72.0086 228.351 72.2261 230.304 72.6845L229.831 69.4185C229.306 65.7897 227.806 63.1101 225.333 61.3799C222.86 59.6497 219.578 59.0806 215.487 59.6726C212.584 60.0927 209.922 61.0169 207.502 62.4449C205.072 63.807 202.539 65.6219 199.903 67.8895L195.181 61.0957C198.278 58.2899 201.461 56.0779 204.729 54.4597C208.064 52.832 211.645 51.7412 215.471 51.1873C222.399 50.1847 228.11 51.2443 232.603 54.3662C237.153 57.4126 239.915 62.3007 240.889 69.0306L243.682 88.3295C243.864 89.5831 244.191 90.4452 244.663 90.9157C245.201 91.3767 246.003 91.5638 247.068 91.477L248.329 100.186C247.368 100.527 246.496 100.788 245.714 100.969C244.932 101.149 244.277 101.278 243.749 101.354C241.439 101.689 239.61 101.381 238.26 100.431C236.91 99.4812 236.026 98.2619 235.609 96.773L234.882 93.8469C233.059 97.0747 230.513 99.7334 227.246 101.823C223.978 103.913 220.563 105.215 217 105.731C213.569 106.227 210.401 105.979 207.495 104.985C204.58 103.925 202.187 102.284 200.316 100.062C198.445 97.8405 197.29 95.2122 196.851 92.1771ZM230.266 90.5744C230.933 89.6021 231.436 88.6537 231.774 87.7291C232.111 86.8045 232.232 86.0123 232.137 85.3525L231.278 79.4144C229.325 78.956 227.302 78.7099 225.209 78.676C223.107 78.5761 221.066 78.6694 219.086 78.9559C215.127 79.5288 212.009 80.7885 209.731 82.7349C207.519 84.6717 206.613 87.0256 207.014 89.7968C207.234 91.3143 207.84 92.7085 208.832 93.9795C209.891 95.241 211.241 96.1907 212.882 96.8288C214.59 97.4574 216.598 97.6045 218.908 97.2703C221.283 96.9266 223.492 96.1353 225.536 94.8964C227.58 93.6576 229.156 92.2169 230.266 90.5744Z" fill="#FF6329"/>
<path d="M292.348 93.5063C291.459 94.0531 290.341 94.6536 288.993 95.3079C287.646 95.9621 286.093 96.5676 284.335 97.1241C282.643 97.6748 280.868 98.0322 279.008 98.1961C276.75 98.3952 274.623 98.1813 272.627 97.5542C270.631 96.9271 268.959 95.8029 267.612 94.1817C266.325 92.4882 265.558 90.2469 265.312 87.4577L262.44 54.8841L255.566 55.4902L254.82 47.0231L261.693 46.417L260.182 29.2834L271.14 28.3172L272.651 45.4507L284.007 44.4493L284.753 52.9165L273.397 53.9179L275.962 83.005C276.253 84.7863 276.935 86.0647 278.007 86.8402C279.146 87.6098 280.479 87.9273 282.006 87.7926C283.533 87.6579 284.971 87.2634 286.319 86.6092C287.667 85.9549 288.658 85.4325 289.293 85.0419L292.348 93.5063Z" fill="#FF6329"/>
<path d="M303.04 46.8056L304.536 34.914L301.14 35.0872L300.509 22.7033L311.195 22.1583L311.832 34.6421L309.232 46.4899L303.04 46.8056Z" fill="#FF6329"/>
<path d="M350.074 95.1706C345.674 95.2013 341.503 94.5304 337.56 93.1578C333.617 91.7186 330.235 89.5755 327.415 86.7284L331.463 79.3C334.482 81.9457 337.495 83.8581 340.503 85.0371C343.578 86.2157 346.616 86.7945 349.616 86.7736C352.682 86.7522 355.178 86.1682 357.104 85.0214C359.029 83.8079 359.983 82.0679 359.967 79.8013C359.956 78.1347 359.447 76.9048 358.442 76.1118C357.436 75.3188 355.965 74.6291 354.027 74.0426C352.156 73.4556 349.885 72.8047 347.213 72.09C343.472 70.9827 340.331 69.8379 337.789 68.6556C335.247 67.4067 333.336 65.8866 332.057 64.0955C330.778 62.3044 330.129 60.0088 330.109 57.2089C330.086 53.809 330.932 50.903 332.648 48.491C334.365 46.079 336.752 44.2289 339.81 42.9409C342.934 41.6524 346.53 40.994 350.596 40.9657C354.396 40.9392 357.9 41.5148 361.109 42.6924C364.383 43.803 367.262 45.5829 369.746 48.0323L365.097 55.3649C362.749 53.2479 360.338 51.698 357.865 50.7152C355.458 49.732 352.854 49.2501 350.054 49.2697C348.454 49.2808 346.922 49.4915 345.459 49.9017C343.994 50.2453 342.766 50.9205 341.773 51.9275C340.846 52.8673 340.389 54.2038 340.401 55.9371C340.41 57.3371 340.818 58.4676 341.624 59.3287C342.43 60.1897 343.635 60.9147 345.24 61.5035C346.844 62.0924 348.815 62.7453 351.153 63.4623C355.228 64.634 358.703 65.8098 361.578 66.9897C364.453 68.1031 366.663 69.5877 368.209 71.4436C369.822 73.2324 370.639 75.7268 370.662 78.9267C370.697 83.9933 368.825 87.9731 365.045 90.8662C361.331 93.6921 356.341 95.1269 350.074 95.1706Z" fill="#FF6329"/>
<path d="M432.681 46.7693L427.736 96.7251L416.59 95.6216L423.585 24.967L432.74 25.8734L467.691 80.8843L472.735 29.9334L483.98 31.0467L476.995 101.602L467.242 100.636L432.681 46.7693Z" fill="#FF6329"/>
<path d="M518.897 109.648C514.894 108.93 511.376 107.587 508.342 105.621C505.386 103.6 502.944 101.164 501.018 98.3123C499.103 95.395 497.772 92.2438 497.024 88.8586C496.355 85.4196 496.343 81.8956 496.991 78.2865C497.862 73.4307 499.772 69.2016 502.721 65.5991C505.682 61.9309 509.382 59.242 513.82 57.5322C518.27 55.7568 523.186 55.3517 528.566 56.3171C533.947 57.2824 538.35 59.3591 541.774 62.5472C545.275 65.6815 547.75 69.4442 549.197 73.8355C550.644 78.2267 550.956 82.719 550.132 87.3123C549.991 88.0998 549.823 88.8485 549.627 89.5585C549.444 90.203 549.278 90.7489 549.13 91.1965L507.889 83.7976C507.544 86.8514 507.888 89.6561 508.919 92.2117C510.028 94.7135 511.613 96.8267 513.675 98.5511C515.748 100.21 518.096 101.275 520.721 101.746C523.608 102.264 526.461 102.03 529.279 101.046C532.163 100.073 534.276 98.488 535.619 96.2906L544.394 100.608C542.831 102.901 540.719 104.859 538.057 106.481C535.473 108.05 532.533 109.148 529.237 109.776C525.953 110.338 522.506 110.295 518.897 109.648ZM508.883 76.5593L539.986 82.1394C540.319 79.1512 539.931 76.4062 538.822 73.9044C537.79 71.3488 536.238 69.2415 534.165 67.5828C532.169 65.8701 529.794 64.7666 527.038 64.2721C524.347 63.7895 521.736 63.9983 519.204 64.8987C516.749 65.7452 514.594 67.1872 512.738 69.2249C510.895 71.197 509.609 73.6418 508.883 76.5593Z" fill="#FF6329"/>
<path d="M635.194 82.2265L645.341 84.927L610.63 129.81L601.546 127.392L598.532 102.168L583.379 122.557L574.295 120.14L566.389 63.915L576.536 66.6154L582.072 111.137L594.187 94.3892L591.199 70.6213L600.186 73.0131L601.696 90.2822L611.493 76.0221L620.48 78.414L606.17 97.5783L608.357 118.132L635.194 82.2265Z" fill="#FF6329"/>
<path d="M657.114 121.29C657.885 119.088 658.842 117.162 659.984 115.514C661.127 113.865 662.528 112.484 664.19 111.371C665.873 110.194 667.899 109.35 670.268 108.837C671.558 108.583 673.059 108.331 674.771 108.083C676.504 107.771 678.219 107.312 679.915 106.705C681.611 106.098 683.153 105.225 684.54 104.087C685.991 102.97 687.057 101.436 687.74 99.4858C688.467 97.4094 688.57 95.5028 688.048 93.7661C687.548 91.9664 686.632 90.4451 685.302 89.2022C684.056 87.9184 682.521 86.957 680.696 86.3181C678.746 85.6352 676.809 85.4162 674.887 85.6614C672.964 85.9066 671.185 86.4491 669.549 87.2889C667.913 88.1287 666.444 89.0976 665.141 90.1954L659.965 83.1914C662.001 81.0082 664.345 79.3567 666.997 78.237C669.649 77.1173 672.431 76.5371 675.341 76.4966C678.251 76.4561 681.122 76.9315 683.953 77.9229C686.282 78.7381 688.446 79.9197 690.447 81.4679C692.533 82.9752 694.223 84.8033 695.519 86.9523C696.815 89.1013 697.591 91.5272 697.845 94.2298C698.184 96.8915 697.792 99.8268 696.669 103.036C695.898 105.238 694.943 107.058 693.804 108.496C692.749 109.892 691.499 111.044 690.051 111.95C688.604 112.856 687.043 113.581 685.369 114.125C683.718 114.606 681.951 115.012 680.07 115.342C678.166 115.735 676.283 116.17 674.42 116.648C672.58 117.063 670.903 117.818 669.389 118.913C667.876 120.008 666.679 121.813 665.797 124.33L657.114 121.29ZM650.094 142.247L654.258 130.355L662.847 133.363L658.683 145.255L650.094 142.247Z" fill="#FF6329"/>
</svg>
