<svg width="609" height="897" viewBox="0 0 609 897" fill="none" xmlns="http://www.w3.org/2000/svg">
<path d="M16.7466 895.499L2.01993 873.432L17.228 850.64L17.8277 849.741L17.2279 848.842L2.01993 826.054L17.228 803.262L17.8277 802.363L17.2279 801.464L2.01986 778.674L17.2279 755.884L17.8276 754.985L17.228 754.086L2.01993 731.292L17.2279 708.503L17.8276 707.604L17.228 706.705L2.01979 683.909L17.2279 661.118L17.8276 660.22L17.228 659.321L2.01986 636.526L17.228 613.734L17.8276 612.835L17.228 611.937L2.01979 589.142L17.228 566.349L17.8276 565.45L17.228 564.551L2.01986 541.758L17.228 518.963L17.8276 518.065L17.228 517.166L2.01973 494.369L17.228 471.574L17.8276 470.675L17.228 469.777L2.01979 446.982L17.228 424.187L17.8276 423.289L17.228 422.39L2.01973 399.595L17.228 376.799L17.8275 375.901L17.2281 375.002L2.01979 352.203L17.228 329.407L17.8275 328.508L17.228 327.61L2.01973 304.812L17.228 282.015L17.8276 281.117L17.228 280.218L2.01986 257.426L17.228 234.63L17.8275 233.731L17.2281 232.833L2.01979 210.034L17.228 187.239L17.8276 186.341L17.228 185.442L2.01973 162.645L17.228 139.847L17.8275 138.948L17.2281 138.05L2.01966 115.249L17.2281 92.4479L17.8275 91.5494L17.2281 90.6508L2.01966 67.8499L17.2281 45.0478L17.8273 44.1493L17.2281 43.2509L2.01953 20.4456L16.7473 -1.63794L622.451 -1.63794L621.154 894.97L16.7466 895.499Z" fill="#E06331"/>
<path d="M17.5393 893.479L619.464 892.952L620.757 -0.418818H17.5408L3.89275 20.0456L19.7008 43.7493L3.89308 67.4498L19.7011 91.1493L3.89308 114.849L19.7011 138.548L3.89321 162.245L19.7012 185.941L3.89328 209.634L19.7012 233.331L3.89334 257.026L19.7012 280.716L3.89321 304.412L19.7012 328.108L3.89314 351.803L19.7012 375.501L3.89334 399.195L19.7012 422.889L3.89341 446.582L19.7012 470.275L3.89334 493.969L19.7012 517.665L3.89334 541.358L19.7015 565.05L3.89334 588.742L19.7015 612.435L18.5019 614.233L3.89341 636.126L19.7015 659.819L3.89341 683.509L19.7015 707.204L3.89347 730.892L19.7015 754.585L3.8936 778.273L19.7015 801.963L3.89347 825.654L19.7015 849.34L3.89354 873.031L17.5393 893.479ZM15.808 896.719L0 873.031L15.808 849.341L0 825.654L15.808 801.963L0 778.273L15.808 754.585L0 730.892L15.808 707.204L0 683.509L15.808 659.819L0 636.125L15.808 612.435L0 588.742L15.808 565.05L0 541.358L15.808 517.665L0 493.969L15.808 470.275L0 446.582L15.808 422.889L0 399.195L15.808 375.5L0 351.803L15.808 328.108L0 304.412L15.808 280.716L0 257.026L15.808 233.331L0 209.634L15.808 185.941L0 162.245L15.808 138.548L0 114.849L15.808 91.1493L0 67.4498L15.808 43.7491L0 20.0455L15.808 -3.65747H624L622.698 896.188L15.808 896.719Z" fill="black"/>
</svg>
