<svg width="1728" height="474" viewBox="0 0 1728 474" fill="none" xmlns="http://www.w3.org/2000/svg">
<rect x="222.829" y="345.215" width="251.384" height="232.922" rx="22.5" transform="rotate(159.434 222.829 345.215)" fill="#8C7284" fill-opacity="0.8" stroke="#2C3333"/>
<circle cx="541.584" cy="271.96" r="93.7838" transform="rotate(90 541.584 271.96)" stroke="#73A9AD"/>
<path d="M269.829 27.2952L308.391 126.328L203.894 106.967L269.829 27.2952Z" fill="#FF8484" fill-opacity="0.9" stroke="#73A9AD"/>
<circle cx="377.042" cy="247.068" r="45.0148" transform="rotate(90 377.042 247.068)" fill="#8C7284" fill-opacity="0.8"/>
<circle cx="467.275" cy="449.302" r="45.0148" transform="rotate(90 467.275 449.302)" fill="#FF8484" fill-opacity="0.9"/>
<circle cx="315.175" cy="394.838" r="42.8977" transform="rotate(90 315.175 394.838)" stroke="#73A9AD"/>
<path d="M754.697 369.23L570.728 456.477L732.003 571.571L754.697 369.23Z" fill="#8C7284" fill-opacity="0.8"/>
<rect x="1443.16" y="210.828" width="252.384" height="233.922" rx="23" transform="rotate(-48.6578 1443.16 210.828)" fill="#8C7284" fill-opacity="0.8"/>
<circle cx="1197.15" cy="425.505" r="93.7838" transform="rotate(-118.092 1197.15 425.505)" stroke="#73A9AD"/>
<path d="M1552.1 513.382L1471.45 444.174L1572.75 412.048L1552.1 513.382Z" fill="#FF8484" fill-opacity="0.9" stroke="#73A9AD"/>
<circle cx="1354.03" cy="369.985" r="45.0148" transform="rotate(-118.092 1354.03 369.985)" fill="#8C7284" fill-opacity="0.8"/>
<circle cx="1179.2" cy="234.064" r="45.0148" transform="rotate(-118.092 1179.2 234.064)" fill="#FF8484" fill-opacity="0.9"/>
<circle cx="1339.03" cy="210.49" r="42.8977" transform="rotate(-118.092 1339.03 210.49)" stroke="#73A9AD"/>
<path d="M963.341 440.046L1084.55 276.449L888.083 250.856L963.341 440.046Z" fill="#FF8484" fill-opacity="0.9"/>
</svg>
