<svg width="60" height="60" viewBox="0 0 60 60" fill="none" xmlns="http://www.w3.org/2000/svg">
<path d="M33.25 43.1875C32.75 42.6875 32.51 42.0833 32.53 41.375C32.5517 40.6667 32.8125 40.0625 33.3125 39.5625L40.375 32.5L12.5 32.5C11.7917 32.5 11.1975 32.26 10.7175 31.78C10.2392 31.3017 10 30.7083 10 30C10 29.2917 10.2392 28.6975 10.7175 28.2175C11.1975 27.7392 11.7917 27.5 12.5 27.5L40.375 27.5L33.25 20.375C32.75 19.875 32.5 19.2808 32.5 18.5925C32.5 17.9058 32.75 17.3125 33.25 16.8125C33.75 16.3125 34.3442 16.0625 35.0325 16.0625C35.7192 16.0625 36.3125 16.3125 36.8125 16.8125L48.25 28.25C48.5 28.5 48.6775 28.7708 48.7825 29.0625C48.8858 29.3542 48.9375 29.6667 48.9375 30C48.9375 30.3333 48.8858 30.6458 48.7825 30.9375C48.6775 31.2292 48.5 31.5 48.25 31.75L36.75 43.25C36.2917 43.7083 35.7192 43.9375 35.0325 43.9375C34.3442 43.9375 33.75 43.6875 33.25 43.1875Z" fill="#FF6329"/>
</svg>
