<svg width="60" height="60" viewBox="0 0 60 60" fill="none" xmlns="http://www.w3.org/2000/svg">
<path d="M26.75 16.8125C27.25 17.3125 27.49 17.9167 27.47 18.625C27.4483 19.3333 27.1875 19.9375 26.6875 20.4375L19.625 27.5L47.5 27.5C48.2083 27.5 48.8025 27.74 49.2825 28.22C49.7608 28.6983 50 29.2917 50 30C50 30.7083 49.7608 31.3025 49.2825 31.7825C48.8025 32.2608 48.2083 32.5 47.5 32.5H19.625L26.75 39.625C27.25 40.125 27.5 40.7192 27.5 41.4075C27.5 42.0942 27.25 42.6875 26.75 43.1875C26.25 43.6875 25.6558 43.9375 24.9675 43.9375C24.2808 43.9375 23.6875 43.6875 23.1875 43.1875L11.75 31.75C11.5 31.5 11.3225 31.2292 11.2175 30.9375C11.1142 30.6458 11.0625 30.3333 11.0625 30C11.0625 29.6667 11.1142 29.3542 11.2175 29.0625C11.3225 28.7708 11.5 28.5 11.75 28.25L23.25 16.75C23.7083 16.2917 24.2808 16.0625 24.9675 16.0625C25.6558 16.0625 26.25 16.3125 26.75 16.8125Z" fill="#FF6329"/>
</svg>
