<svg width="21" height="21" viewBox="0 0 21 21" fill="none" xmlns="http://www.w3.org/2000/svg">
<path d="M19.6828 17.7006L15.65 13.451C16.6379 12.1241 17.2516 10.5015 17.2892 8.72021C17.3929 4.16712 13.7942 0.37798 9.27021 0.267718C4.74622 0.157456 0.976392 3.77128 0.87218 8.31924C0.767969 12.8672 4.36721 16.6615 8.8912 16.7717C10.6637 16.8169 12.303 16.2742 13.6666 15.3469L17.6994 19.5965C17.963 19.8734 18.3098 20.0164 18.6569 20.0241C19.0092 20.0314 19.3623 19.9086 19.6324 19.6444C20.1833 19.1201 20.2044 18.2499 19.6828 17.7006ZM8.95437 14.0211C5.93857 13.9493 3.54058 11.4178 3.60835 8.38607C3.67613 5.35429 6.18556 2.94203 9.20704 3.01839C12.2228 3.09018 14.6208 5.6216 14.5531 8.65338C14.4853 11.6852 11.9702 14.0929 8.95437 14.0211Z" fill="#FF6329"/>
</svg>
